HIERARCHY
ROOT RootJoint
{
    OFFSET   0.000000   0.000000   0.000000
    CHANNELS 6 Xposition Yposition Zposition Xrotation Yrotation Zrotation
    JOINT pelvis_lowerback
    {
        OFFSET   0.000000   0.093605   0.000000
        CHANNELS 3 Xrotation Yrotation Zrotation
        JOINT lowerback_torso
        {
            OFFSET   0.000000   0.100000   0.000000
            CHANNELS 3 Xrotation Yrotation Zrotation
            JOINT torso_head
            {
                OFFSET   0.000000   0.282350   0.000000
                CHANNELS 3 Xrotation Yrotation Zrotation
                End Site
                {
                    OFFSET   0.000000   0.192650   0.000000
                }
            }
            JOINT rTorso_Clavicle
            {
                OFFSET  -0.001000   0.157500   0.000000
                CHANNELS 3 Xrotation Yrotation Zrotation
                JOINT rShoulder
                {
                    OFFSET  -0.117647   0.000000   0.000000
                    CHANNELS 3 Xrotation Yrotation Zrotation
                    JOINT rElbow
                    {
                        OFFSET  -0.245000   0.000000   0.000000
                        CHANNELS 3 Xrotation Yrotation Zrotation
                        JOINT rWrist
                        {
                            OFFSET  -0.240000   0.000000   0.000000
                            CHANNELS 3 Xrotation Yrotation Zrotation
                            End Site
                            {
                                OFFSET  -0.116353  -0.002500   0.000000
                            }
                        }
                    }
                }
            }
            JOINT lTorso_Clavicle
            {
                OFFSET   0.001000   0.157500   0.000000
                CHANNELS 3 Xrotation Yrotation Zrotation
                JOINT lShoulder
                {
                    OFFSET   0.117647   0.000000   0.000000
                    CHANNELS 3 Xrotation Yrotation Zrotation
                    JOINT lElbow
                    {
                        OFFSET   0.245000   0.000000   0.000000
                        CHANNELS 3 Xrotation Yrotation Zrotation
                        JOINT lWrist
                        {
                            OFFSET   0.240000   0.000000   0.000000
                            CHANNELS 3 Xrotation Yrotation Zrotation
                            End Site
                            {
                                OFFSET   0.116353  -0.002500   0.000000
                            }
                        }
                    }
                }
            }
        }
    }
    JOINT rHip
    {
        OFFSET  -0.100000  -0.051395   0.000000
        CHANNELS 3 Xrotation Yrotation Zrotation
        JOINT rKnee
        {
            OFFSET   0.000000  -0.410000   0.000000
            CHANNELS 3 Xrotation Yrotation Zrotation
            JOINT rAnkle
            {
                OFFSET   0.000000  -0.390000   0.000000
                CHANNELS 3 Xrotation Yrotation Zrotation
                JOINT rToeJoint
                {
                    OFFSET   0.000000  -0.050000   0.130000
                    CHANNELS 3 Xrotation Yrotation Zrotation
                    End Site
                    {
                        OFFSET  -0.010000   0.002000   0.060000
                    }
                }
            }
        }
    }
    JOINT lHip
    {
        OFFSET   0.100000  -0.051395   0.000000
        CHANNELS 3 Xrotation Yrotation Zrotation
        JOINT lKnee
        {
            OFFSET   0.000000  -0.410000   0.000000
            CHANNELS 3 Xrotation Yrotation Zrotation
            JOINT lAnkle
            {
                OFFSET   0.000000  -0.390000   0.000000
                CHANNELS 3 Xrotation Yrotation Zrotation
                JOINT lToeJoint
                {
                    OFFSET   0.000000  -0.050000   0.130000
                    CHANNELS 3 Xrotation Yrotation Zrotation
                    End Site
                    {
                        OFFSET   0.010000   0.002000   0.060000
                    }
                }
            }
        }
    }
}
MOTION
Frames: 14
Frame Time:   0.008333
 -2.376719   0.925631   3.975860   0.000000   0.000000   0.000000   0.000000   0.000000   0.000000   0.000000   0.000000   0.000000   0.000000   0.000000   0.000000   0.000000   0.000000   0.000000   0.000000   0.000000   0.000000   0.000000   0.000000   0.000000   0.000000   0.000000   0.000000   0.000000   0.000000   0.000000   0.000000   0.000000   0.000000   0.000000   0.000000   0.000000   0.000000   0.000000   0.000000   0.000000   0.000000   0.000000   0.000000   0.000000   0.000000   0.000000   0.000000   0.000000   0.000000   0.000000   0.000000   0.000000   0.000000   0.000000   0.000000   0.000000   0.000000   0.000000   0.000000   0.000000   0.000000   0.000000   0.000000
 -2.376900   0.926295   3.974971   0.169837  -0.023546  -0.106799  -0.075857   0.078983   0.083535   0.079434  -0.190085   0.003418  -0.236439  -0.027286   0.102078   0.147893  -0.136118   0.393985   0.636737   0.270206   2.076289   0.021392   0.995420  -0.008494   0.283731  -0.619570  -2.730990   0.255134   0.229114  -0.628547   1.058940   0.044772  -1.890096   0.023039  -1.034468   0.013617   0.337892   0.389478   2.972606  -0.710584  -0.213088   0.001756   1.318272   0.001168  -0.002726  -1.063033  -0.385157  -0.141862  -0.187305  -0.000406   0.001013  -0.669823  -0.158236   0.326078   1.180601  -0.002283  -0.001827  -0.687538   0.153543  -0.030614   0.394659  -0.000648  -0.000092
 -2.377199   0.927396   3.973936   0.268261  -0.090008  -0.215166  -0.090744   0.164087   0.148410   0.216198  -0.365684  -0.002062  -0.455412  -0.058693   0.210502   0.291932  -0.165717   1.526551   1.244756   0.654505   4.745554   0.049776   1.979175  -0.015393   0.590446  -0.904824  -4.701008   0.510542   0.370944  -2.017116   2.092894  -0.013024  -4.401695   0.053655  -2.040191   0.024469   0.717969   0.504097   5.208826  -1.380297  -0.427547  -0.108743   2.676752   0.003328  -0.005604  -2.056073  -0.750479  -0.283180  -0.407226  -0.001019   0.002043  -1.289243  -0.315880   0.815969   2.398527  -0.005998  -0.003591  -1.324287   0.300182  -0.055608   0.751187  -0.001637  -0.000272
 -2.377581   0.928496   3.972862   0.345402  -0.182610  -0.309018  -0.082653   0.247837   0.184795   0.366124  -0.524028  -0.031117  -0.658105  -0.089103   0.315440   0.422999  -0.114426   3.108010   1.815984   1.125377   7.801570   0.077880   2.919604  -0.020349   0.893660  -1.012660  -5.816350   0.750073   0.428566  -3.872591   3.080430  -0.170975  -7.270422   0.083970  -2.996788   0.032332   1.093239   0.475308   6.534338  -2.011944  -0.627922  -0.329463   3.956369   0.005837  -0.008009  -2.983605  -1.091094  -0.422201  -0.615766  -0.001644   0.002780  -1.868524  -0.468952   1.419108   3.547570  -0.010094  -0.004825  -1.918110   0.439121  -0.076124   1.073890  -0.002705  -0.000429
 -2.378052   0.929266   3.971808   0.417075  -0.292192  -0.386684  -0.061412   0.327983   0.188536   0.513604  -0.669140  -0.093897  -0.847895  -0.118042   0.417257   0.539009  -0.010115   4.943080   2.347817   1.667049  11.117857   0.102249   3.811806  -0.023660   1.192266  -1.011841  -6.298107   0.969784   0.423560  -6.019026   3.988772  -0.410796 -10.250960   0.109945  -3.904035   0.037542   1.462652   0.343745   7.127030  -2.611553  -0.812078  -0.640568   5.147270   0.008276  -0.009891  -3.851146  -1.408269  -0.558273  -0.815180  -0.002231   0.003285  -2.414668  -0.618652   2.109272   4.617608  -0.014026  -0.005520  -2.473191   0.570500  -0.092880   1.362298  -0.003688  -0.000533
 -2.378609   0.929464   3.970821   0.488261  -0.413027  -0.450819  -0.032758   0.403596   0.160087   0.653105  -0.803543  -0.188263  -1.025208  -0.145521   0.512973   0.638891   0.124783   6.897558   2.837706   2.264976  14.605640   0.121436   4.653756  -0.025624   1.484061  -0.943931  -6.356369   1.167018   0.376774  -8.306439   4.819110  -0.713718 -13.234361   0.130018  -4.761599   0.040655   1.823477   0.140781   7.225491  -3.180147  -0.979527  -1.021573   6.254646   0.010427  -0.011292  -4.662601  -1.703379  -0.690779  -1.004580  -0.002742   0.003595  -2.928854  -0.766152   2.867032   5.612796  -0.017495  -0.005770  -2.992127   0.694544  -0.106412   1.620391  -0.004509  -0.000586
 -2.379209   0.928907   3.969930   0.560449  -0.540132  -0.506732  -0.000791   0.474885   0.108842   0.782818  -0.927977  -0.297015  -1.190472  -0.171629   0.597530   0.724466   0.275862   8.925521   3.264618   2.882835  18.076873   0.134770   5.446585  -0.026351   1.767259  -0.828423  -6.079499   1.341495   0.304350 -10.641755   5.574312  -1.062569 -16.157889   0.143916  -5.569957   0.042122   2.172796  -0.109372   6.999762  -3.717423  -1.130595  -1.456099   7.285506   0.012225  -0.012266  -5.421443  -1.977779  -0.819198  -1.183122  -0.003160   0.003745  -3.411385  -0.912285   3.674373   6.539370  -0.020323  -0.005680  -3.477184   0.811518  -0.117147   1.851976  -0.005130  -0.000596
 -2.379674   0.926861   3.968686   0.620855  -0.648654  -0.608022   0.229338   0.444970   0.153578   0.799717  -0.964997  -0.407094  -1.516144  -0.301791   0.620690   0.829608   0.551268  10.348031   3.656824   3.403323  21.243906   0.145012   6.371113  -0.028703   2.019112  -0.690327  -4.787094   1.421227   0.220629 -12.170480   6.047074  -1.449278 -19.093860   0.153730  -6.490118   0.042451   2.448776  -0.345255   5.689277  -4.388086  -1.552991  -1.812573   8.584765   0.013740  -0.016845  -5.762649  -2.414979  -0.817835  -1.223712  -0.002698   0.003338  -3.808120  -0.876330   4.449007   7.047936  -0.019287  -0.004199  -3.810639   1.034732  -0.174489   2.020564  -0.004998  -0.000109
 -2.380038   0.923571   3.967362   0.684073  -0.705091  -0.715876   0.482212   0.388638   0.218996   0.820594  -1.014250  -0.494878  -1.826218  -0.427862   0.638734   0.902738   0.845082  11.456733   3.988413   3.927293  24.047917   0.146477   7.246696  -0.029956   2.270411  -0.481395  -3.641371   1.471899   0.099498 -13.373268   6.459737  -1.854757 -21.685413   0.154419  -7.365087   0.042029   2.712257  -0.661645   4.492883  -5.050709  -1.962753  -2.128629   9.828331   0.014213  -0.019576  -6.072612  -2.827599  -0.819899  -1.213983  -0.002124   0.002593  -4.204631  -0.839057   5.149396   7.456862  -0.017551  -0.002896  -4.124700   1.245586  -0.226410   2.174771  -0.004706   0.000307
 -2.380322   0.919182   3.966062   0.747093  -0.732581  -0.823699   0.737062   0.326369   0.295176   0.846105  -1.070736  -0.563328  -2.111249  -0.545725   0.655566   0.951596   1.134518  12.344149   4.268700   4.437232  26.557579   0.142399   8.069482  -0.030169   2.513564  -0.250149  -2.753569   1.501923  -0.036969 -14.341778   6.822182  -2.258542 -23.990772   0.149254  -8.188432   0.040817   2.966521  -1.004178   3.561266  -5.681902  -2.341851  -2.410337  10.986765   0.013919  -0.020763  -6.361646  -3.212342  -0.824221  -1.200381  -0.001655   0.001977  -4.594363  -0.807128   5.775008   7.817503  -0.015662  -0.001850  -4.418777   1.442417  -0.273974   2.315439  -0.004320   0.000615
 -2.380594   0.918001   3.964800   0.768841  -0.840649  -0.372157   1.040106   0.297056  -0.096593   0.895234  -1.104200  -0.807723  -2.382428  -0.655104   0.657840   0.977364   1.441402  13.386588   4.497100   4.949797  28.960489   0.137374   8.839818  -0.029726   2.746762  -0.027660  -2.078971   1.512733  -0.183275 -15.307961   7.138644  -2.652386 -26.085066   0.142326  -8.947763   0.039222   3.205314  -1.280286   2.938708  -6.264658  -2.657998  -3.140931  12.023920   0.012268  -0.021732  -6.621007  -3.573987  -0.832803  -1.101832  -0.001093   0.000834  -5.103846  -0.793932   5.353011   8.644433  -0.012823  -0.001845  -4.624936   1.515565  -0.722586   1.805616  -0.005303   0.000551
 -2.381369   0.917350   3.963751   0.801752  -1.016042  -0.202291   1.298164   0.288509  -0.202751   0.944589  -1.117851  -0.970385  -2.625386  -0.756092   0.647645   0.994675   1.727514  14.225148   4.691557   5.438709  31.163153   0.129961   9.564965  -0.028415   2.969789   0.222634  -1.384838   1.530087  -0.305409 -16.144921   7.425745  -3.026792 -28.051157   0.133302  -9.662271   0.037253   3.432483  -1.573839   2.298456  -6.810537  -2.967240  -3.433119  12.993808   0.009474  -0.022185  -6.868851  -3.909926  -0.841521  -1.045755  -0.000821   0.000240  -5.482727  -0.769455   5.242144   9.255716  -0.010632  -0.002009  -4.821047   1.638475  -0.864172   1.457122  -0.004500   0.000429
 -2.382444   0.916869   3.962837   0.851196  -1.196122  -0.126169   1.528359   0.272860  -0.232100   0.982688  -1.133426  -1.072515  -2.852050  -0.850750   0.647132   1.006790   1.986210  14.922948   4.858774   5.893439  33.168031   0.120906  10.241131  -0.026527   3.181013   0.465781  -0.778828   1.547998  -0.411729 -16.855063   7.685624  -3.376205 -29.847144   0.122788 -10.328296   0.034984   3.647632  -1.858575   1.725420  -7.329542  -3.268267  -3.551343  13.906336   0.006600  -0.021963  -7.102928  -4.221298  -0.849506  -1.013603  -0.000651  -0.000040  -5.812022  -0.745976   5.247555   9.758265  -0.008907  -0.002062  -4.994581   1.768144  -0.949392   1.192734  -0.003619   0.000323
 -2.383751   0.916274   3.962113   0.870493  -1.317004   0.031623   1.826541   0.272115  -0.415414   0.950469  -1.115204  -1.109357  -3.063189  -0.960894   0.676628   1.059495   2.092571  15.255639   5.070138   6.269658  34.640714   0.110692  11.049491  -0.025551   3.314885   0.836691   0.491481   1.598917  -0.474734 -17.045017   7.741605  -3.755703 -31.309405   0.111229 -11.111134   0.032110   3.819406  -2.141494   0.549615  -7.514678  -3.455216  -3.684085  13.989552   0.005175  -0.017814  -7.064247  -4.443844  -0.787644  -0.750614  -0.000786  -0.001311  -6.070202  -0.695314   5.171662  10.184703  -0.007442  -0.001774  -5.171420   1.825347  -0.904288   1.011663  -0.002703   0.000243
